<svg id="visual" viewBox="0 0 900 600" width="900" height="600" xmlns="http://www.w3.org/2000/svg" xmlns:xlink="http://www.w3.org/1999/xlink" version="1.1"><path d="M0 150L21.5 136C43 122 86 94 128.8 96.5C171.7 99 214.3 132 257.2 124.8C300 117.7 343 70.3 385.8 87.7C428.7 105 471.3 187 514.2 218.5C557 250 600 231 642.8 195.8C685.7 160.7 728.3 109.3 771.2 106.3C814 103.3 857 148.7 878.5 171.3L900 194L900 0L878.5 0C857 0 814 0 771.2 0C728.3 0 685.7 0 642.8 0C600 0 557 0 514.2 0C471.3 0 428.7 0 385.8 0C343 0 300 0 257.2 0C214.3 0 171.7 0 128.8 0C86 0 43 0 21.5 0L0 0Z" fill="#FFD147" stroke-linecap="round" stroke-linejoin="miter"></path></svg>